<mxfile host="app.diagrams.net" agent="Mozilla/5.0 (Windows NT 10.0; Win64; x64) AppleWebKit/537.36 (KHTML, like Gecko) Chrome/130.0.0.0 Safari/537.36 OPR/115.0.0.0" version="26.0.7" pages="4">
  <diagram name="inicio" id="C9ZahooGxBihevK_7a3Z">
    <mxGraphModel dx="477" dy="619" grid="1" gridSize="10" guides="1" tooltips="1" connect="1" arrows="1" fold="1" page="1" pageScale="1" pageWidth="827" pageHeight="1169" math="0" shadow="0">
      <root>
        <mxCell id="0" />
        <mxCell id="1" parent="0" />
        <mxCell id="Kpb9it9NjHFFavK-8-n2-1" value="Inicio" style="ellipse;whiteSpace=wrap;html=1;" parent="1" vertex="1">
          <mxGeometry x="180" y="30" width="120" height="70" as="geometry" />
        </mxCell>
        <mxCell id="Kpb9it9NjHFFavK-8-n2-2" value="Fim" style="ellipse;whiteSpace=wrap;html=1;" parent="1" vertex="1">
          <mxGeometry x="180" y="700" width="120" height="70" as="geometry" />
        </mxCell>
        <mxCell id="Kpb9it9NjHFFavK-8-n2-41" style="edgeStyle=orthogonalEdgeStyle;rounded=0;orthogonalLoop=1;jettySize=auto;html=1;exitX=0.5;exitY=1;exitDx=0;exitDy=0;entryX=0.5;entryY=0;entryDx=0;entryDy=0;" parent="1" source="Kpb9it9NjHFFavK-8-n2-38" target="Kpb9it9NjHFFavK-8-n2-40" edge="1">
          <mxGeometry relative="1" as="geometry" />
        </mxCell>
        <UserObject label="obter_Media" link="data:page/id,JtzEYDfxYs6SBoKHf_U1" id="Kpb9it9NjHFFavK-8-n2-38">
          <mxCell style="shape=process;whiteSpace=wrap;html=1;backgroundOutline=1;" parent="1" vertex="1">
            <mxGeometry x="180" y="400" width="120" height="50" as="geometry" />
          </mxCell>
        </UserObject>
        <mxCell id="Kpb9it9NjHFFavK-8-n2-43" style="edgeStyle=orthogonalEdgeStyle;rounded=0;orthogonalLoop=1;jettySize=auto;html=1;exitX=0.5;exitY=1;exitDx=0;exitDy=0;entryX=0.5;entryY=0;entryDx=0;entryDy=0;" parent="1" source="Kpb9it9NjHFFavK-8-n2-40" target="Kpb9it9NjHFFavK-8-n2-42" edge="1">
          <mxGeometry relative="1" as="geometry" />
        </mxCell>
        <UserObject label="valores_Maiores" link="data:page/id,NGQDjfwu66lC6Ow0XXJ5" id="Kpb9it9NjHFFavK-8-n2-40">
          <mxCell style="shape=process;whiteSpace=wrap;html=1;backgroundOutline=1;" parent="1" vertex="1">
            <mxGeometry x="180" y="500" width="120" height="50" as="geometry" />
          </mxCell>
        </UserObject>
        <mxCell id="Kpb9it9NjHFFavK-8-n2-44" style="edgeStyle=orthogonalEdgeStyle;rounded=0;orthogonalLoop=1;jettySize=auto;html=1;exitX=0.5;exitY=1;exitDx=0;exitDy=0;entryX=0.5;entryY=0;entryDx=0;entryDy=0;" parent="1" source="Kpb9it9NjHFFavK-8-n2-42" target="Kpb9it9NjHFFavK-8-n2-2" edge="1">
          <mxGeometry relative="1" as="geometry" />
        </mxCell>
        <UserObject label="finalizar" link="data:page/id,PQzZfvLfUJHiQpDq7L9y" id="Kpb9it9NjHFFavK-8-n2-42">
          <mxCell style="shape=process;whiteSpace=wrap;html=1;backgroundOutline=1;" parent="1" vertex="1">
            <mxGeometry x="180" y="600" width="120" height="50" as="geometry" />
          </mxCell>
        </UserObject>
        <mxCell id="JpegVkVBbl2n-EuaLR7S-7" style="edgeStyle=orthogonalEdgeStyle;rounded=0;orthogonalLoop=1;jettySize=auto;html=1;exitX=0.5;exitY=1;exitDx=0;exitDy=0;entryX=0.5;entryY=0;entryDx=0;entryDy=0;" edge="1" parent="1" target="JpegVkVBbl2n-EuaLR7S-9" source="Kpb9it9NjHFFavK-8-n2-1">
          <mxGeometry relative="1" as="geometry">
            <mxPoint x="240" y="100" as="sourcePoint" />
          </mxGeometry>
        </mxCell>
        <mxCell id="JpegVkVBbl2n-EuaLR7S-8" style="edgeStyle=orthogonalEdgeStyle;rounded=0;orthogonalLoop=1;jettySize=auto;html=1;exitX=0.5;exitY=1;exitDx=0;exitDy=0;entryX=0.5;entryY=0;entryDx=0;entryDy=0;" edge="1" parent="1" source="JpegVkVBbl2n-EuaLR7S-9" target="JpegVkVBbl2n-EuaLR7S-11">
          <mxGeometry relative="1" as="geometry" />
        </mxCell>
        <mxCell id="JpegVkVBbl2n-EuaLR7S-9" value="var_Num[5] = {45,39,4,77,99}" style="rounded=1;whiteSpace=wrap;html=1;absoluteArcSize=1;arcSize=14;strokeWidth=2;" vertex="1" parent="1">
          <mxGeometry x="190" y="130" width="100" height="50" as="geometry" />
        </mxCell>
        <mxCell id="JpegVkVBbl2n-EuaLR7S-10" style="edgeStyle=orthogonalEdgeStyle;rounded=0;orthogonalLoop=1;jettySize=auto;html=1;exitX=0.5;exitY=1;exitDx=0;exitDy=0;entryX=0.5;entryY=0;entryDx=0;entryDy=0;" edge="1" parent="1" source="JpegVkVBbl2n-EuaLR7S-11" target="JpegVkVBbl2n-EuaLR7S-12">
          <mxGeometry relative="1" as="geometry" />
        </mxCell>
        <mxCell id="JpegVkVBbl2n-EuaLR7S-11" value="media = 0" style="rounded=1;whiteSpace=wrap;html=1;absoluteArcSize=1;arcSize=14;strokeWidth=2;" vertex="1" parent="1">
          <mxGeometry x="190" y="220" width="100" height="50" as="geometry" />
        </mxCell>
        <mxCell id="JpegVkVBbl2n-EuaLR7S-13" style="edgeStyle=orthogonalEdgeStyle;rounded=0;orthogonalLoop=1;jettySize=auto;html=1;exitX=0.5;exitY=1;exitDx=0;exitDy=0;entryX=0.5;entryY=0;entryDx=0;entryDy=0;" edge="1" parent="1" source="JpegVkVBbl2n-EuaLR7S-12" target="Kpb9it9NjHFFavK-8-n2-38">
          <mxGeometry relative="1" as="geometry" />
        </mxCell>
        <mxCell id="JpegVkVBbl2n-EuaLR7S-12" value="contador = 0" style="rounded=1;whiteSpace=wrap;html=1;absoluteArcSize=1;arcSize=14;strokeWidth=2;" vertex="1" parent="1">
          <mxGeometry x="190" y="310" width="100" height="50" as="geometry" />
        </mxCell>
      </root>
    </mxGraphModel>
  </diagram>
  <diagram id="JtzEYDfxYs6SBoKHf_U1" name="obter_Media">
    <mxGraphModel dx="477" dy="619" grid="1" gridSize="10" guides="1" tooltips="1" connect="1" arrows="1" fold="1" page="1" pageScale="1" pageWidth="827" pageHeight="1169" math="0" shadow="0">
      <root>
        <mxCell id="0" />
        <mxCell id="1" parent="0" />
        <mxCell id="-QWMZIePXUgaNnejgnFV-11" style="edgeStyle=orthogonalEdgeStyle;rounded=0;orthogonalLoop=1;jettySize=auto;html=1;exitX=0.5;exitY=1;exitDx=0;exitDy=0;entryX=0.5;entryY=0;entryDx=0;entryDy=0;" edge="1" parent="1" source="-QWMZIePXUgaNnejgnFV-2" target="-QWMZIePXUgaNnejgnFV-21">
          <mxGeometry relative="1" as="geometry">
            <mxPoint x="240" y="130" as="targetPoint" />
          </mxGeometry>
        </mxCell>
        <mxCell id="-QWMZIePXUgaNnejgnFV-2" value="obter_Media" style="ellipse;whiteSpace=wrap;html=1;" vertex="1" parent="1">
          <mxGeometry x="180" y="30" width="120" height="70" as="geometry" />
        </mxCell>
        <mxCell id="-QWMZIePXUgaNnejgnFV-3" value="Fim" style="ellipse;whiteSpace=wrap;html=1;" vertex="1" parent="1">
          <mxGeometry x="180" y="530" width="120" height="70" as="geometry" />
        </mxCell>
        <mxCell id="-QWMZIePXUgaNnejgnFV-18" style="edgeStyle=orthogonalEdgeStyle;rounded=0;orthogonalLoop=1;jettySize=auto;html=1;exitX=0.5;exitY=1;exitDx=0;exitDy=0;entryX=0.5;entryY=0;entryDx=0;entryDy=0;" edge="1" parent="1" source="-QWMZIePXUgaNnejgnFV-21" target="-QWMZIePXUgaNnejgnFV-23">
          <mxGeometry relative="1" as="geometry" />
        </mxCell>
        <mxCell id="-QWMZIePXUgaNnejgnFV-19" value="&lt;span style=&quot;color: rgba(0, 0, 0, 0); font-family: monospace; font-size: 0px; text-align: start; background-color: rgb(251, 251, 251);&quot;&gt;%3CmxGraphModel%3E%3Croot%3E%3CmxCell%20id%3D%220%22%2F%3E%3CmxCell%20id%3D%221%22%20parent%3D%220%22%2F%3E%3CmxCell%20id%3D%222%22%20value%3D%22i%3D0%3B%20i%26amp%3Blt%3B5%3B%20i%2B%2B%22%20style%3D%22rounded%3D1%3BwhiteSpace%3Dwrap%3Bhtml%3D1%3BabsoluteArcSize%3D1%3BarcSize%3D14%3BstrokeWidth%3D2%3B%22%20vertex%3D%221%22%20parent%3D%221%22%3E%3CmxGeometry%20x%3D%22190%22%20y%3D%22400%22%20width%3D%22100%22%20height%3D%2250%22%20as%3D%22geometry%22%2F%3E%3C%2FmxCell%3E%3C%2Froot%3E%3C%2FmxGraphModel%3EV&lt;/span&gt;" style="edgeLabel;html=1;align=center;verticalAlign=middle;resizable=0;points=[];" vertex="1" connectable="0" parent="-QWMZIePXUgaNnejgnFV-18">
          <mxGeometry x="-0.2408" y="1" relative="1" as="geometry">
            <mxPoint as="offset" />
          </mxGeometry>
        </mxCell>
        <mxCell id="-QWMZIePXUgaNnejgnFV-20" value="V" style="edgeLabel;html=1;align=center;verticalAlign=middle;resizable=0;points=[];" vertex="1" connectable="0" parent="-QWMZIePXUgaNnejgnFV-18">
          <mxGeometry x="-0.4408" y="1" relative="1" as="geometry">
            <mxPoint x="9" as="offset" />
          </mxGeometry>
        </mxCell>
        <mxCell id="-QWMZIePXUgaNnejgnFV-21" value="i=0; i&amp;lt;5; i++" style="rounded=1;whiteSpace=wrap;html=1;absoluteArcSize=1;arcSize=14;strokeWidth=2;" vertex="1" parent="1">
          <mxGeometry x="190" y="140" width="100" height="50" as="geometry" />
        </mxCell>
        <mxCell id="-QWMZIePXUgaNnejgnFV-22" style="edgeStyle=orthogonalEdgeStyle;rounded=0;orthogonalLoop=1;jettySize=auto;html=1;exitX=0;exitY=0.5;exitDx=0;exitDy=0;entryX=0;entryY=0.5;entryDx=0;entryDy=0;" edge="1" parent="1" source="-QWMZIePXUgaNnejgnFV-23" target="-QWMZIePXUgaNnejgnFV-21">
          <mxGeometry relative="1" as="geometry" />
        </mxCell>
        <mxCell id="-QWMZIePXUgaNnejgnFV-23" value="media += var_Num[i]" style="rounded=1;whiteSpace=wrap;html=1;absoluteArcSize=1;arcSize=14;strokeWidth=2;" vertex="1" parent="1">
          <mxGeometry x="190" y="230" width="100" height="50" as="geometry" />
        </mxCell>
        <mxCell id="-QWMZIePXUgaNnejgnFV-29" style="edgeStyle=orthogonalEdgeStyle;rounded=0;orthogonalLoop=1;jettySize=auto;html=1;exitX=0.5;exitY=1;exitDx=0;exitDy=0;exitPerimeter=0;entryX=0.5;entryY=0;entryDx=0;entryDy=0;" edge="1" parent="1" source="-QWMZIePXUgaNnejgnFV-24" target="-QWMZIePXUgaNnejgnFV-3">
          <mxGeometry relative="1" as="geometry" />
        </mxCell>
        <mxCell id="-QWMZIePXUgaNnejgnFV-24" value="media" style="strokeWidth=2;html=1;shape=mxgraph.flowchart.display;whiteSpace=wrap;" vertex="1" parent="1">
          <mxGeometry x="190" y="430" width="100" height="60" as="geometry" />
        </mxCell>
        <mxCell id="-QWMZIePXUgaNnejgnFV-25" style="edgeStyle=orthogonalEdgeStyle;rounded=0;orthogonalLoop=1;jettySize=auto;html=1;exitX=1;exitY=0.5;exitDx=0;exitDy=0;entryX=1;entryY=0.5;entryDx=0;entryDy=0;" edge="1" parent="1" source="-QWMZIePXUgaNnejgnFV-21" target="-QWMZIePXUgaNnejgnFV-27">
          <mxGeometry relative="1" as="geometry" />
        </mxCell>
        <mxCell id="-QWMZIePXUgaNnejgnFV-26" value="F" style="edgeLabel;html=1;align=center;verticalAlign=middle;resizable=0;points=[];" vertex="1" connectable="0" parent="-QWMZIePXUgaNnejgnFV-25">
          <mxGeometry x="-0.6085" y="2" relative="1" as="geometry">
            <mxPoint x="8" y="-11" as="offset" />
          </mxGeometry>
        </mxCell>
        <mxCell id="-QWMZIePXUgaNnejgnFV-27" value="media =&lt;div&gt;media / 5&lt;/div&gt;" style="rounded=1;whiteSpace=wrap;html=1;absoluteArcSize=1;arcSize=14;strokeWidth=2;" vertex="1" parent="1">
          <mxGeometry x="190" y="330" width="100" height="50" as="geometry" />
        </mxCell>
        <mxCell id="-QWMZIePXUgaNnejgnFV-28" style="edgeStyle=orthogonalEdgeStyle;rounded=0;orthogonalLoop=1;jettySize=auto;html=1;exitX=0.5;exitY=1;exitDx=0;exitDy=0;entryX=0.5;entryY=0;entryDx=0;entryDy=0;entryPerimeter=0;" edge="1" parent="1" source="-QWMZIePXUgaNnejgnFV-27" target="-QWMZIePXUgaNnejgnFV-24">
          <mxGeometry relative="1" as="geometry" />
        </mxCell>
      </root>
    </mxGraphModel>
  </diagram>
  <diagram id="NGQDjfwu66lC6Ow0XXJ5" name="valores_Maiores">
    <mxGraphModel dx="477" dy="619" grid="1" gridSize="10" guides="1" tooltips="1" connect="1" arrows="1" fold="1" page="1" pageScale="1" pageWidth="827" pageHeight="1169" math="0" shadow="0">
      <root>
        <mxCell id="0" />
        <mxCell id="1" parent="0" />
        <mxCell id="W6WWAo-VraU2lFLDkDVo-38" style="edgeStyle=orthogonalEdgeStyle;rounded=0;orthogonalLoop=1;jettySize=auto;html=1;exitX=0.5;exitY=1;exitDx=0;exitDy=0;entryX=0.5;entryY=0;entryDx=0;entryDy=0;" edge="1" parent="1" source="W6WWAo-VraU2lFLDkDVo-2" target="W6WWAo-VraU2lFLDkDVo-27">
          <mxGeometry relative="1" as="geometry" />
        </mxCell>
        <mxCell id="W6WWAo-VraU2lFLDkDVo-2" value="valores_Maiores" style="ellipse;whiteSpace=wrap;html=1;" vertex="1" parent="1">
          <mxGeometry x="180" y="30" width="120" height="70" as="geometry" />
        </mxCell>
        <mxCell id="W6WWAo-VraU2lFLDkDVo-3" value="Fim" style="ellipse;whiteSpace=wrap;html=1;" vertex="1" parent="1">
          <mxGeometry x="180" y="510" width="120" height="70" as="geometry" />
        </mxCell>
        <mxCell id="W6WWAo-VraU2lFLDkDVo-39" style="edgeStyle=orthogonalEdgeStyle;rounded=0;orthogonalLoop=1;jettySize=auto;html=1;exitX=1;exitY=0.5;exitDx=0;exitDy=0;entryX=1;entryY=0.5;entryDx=0;entryDy=0;" edge="1" parent="1" source="W6WWAo-VraU2lFLDkDVo-27" target="W6WWAo-VraU2lFLDkDVo-3">
          <mxGeometry relative="1" as="geometry" />
        </mxCell>
        <mxCell id="W6WWAo-VraU2lFLDkDVo-27" value="i=0; i&amp;lt;5; i++" style="rounded=1;whiteSpace=wrap;html=1;absoluteArcSize=1;arcSize=14;strokeWidth=2;" vertex="1" parent="1">
          <mxGeometry x="190" y="130" width="100" height="50" as="geometry" />
        </mxCell>
        <mxCell id="W6WWAo-VraU2lFLDkDVo-28" value="var_Num[i]&amp;gt;media" style="strokeWidth=2;html=1;shape=mxgraph.flowchart.decision;whiteSpace=wrap;" vertex="1" parent="1">
          <mxGeometry x="175" y="220" width="130" height="60" as="geometry" />
        </mxCell>
        <mxCell id="W6WWAo-VraU2lFLDkDVo-29" style="edgeStyle=orthogonalEdgeStyle;rounded=0;orthogonalLoop=1;jettySize=auto;html=1;exitX=0.5;exitY=1;exitDx=0;exitDy=0;entryX=0.5;entryY=0;entryDx=0;entryDy=0;entryPerimeter=0;" edge="1" parent="1" source="W6WWAo-VraU2lFLDkDVo-27" target="W6WWAo-VraU2lFLDkDVo-28">
          <mxGeometry relative="1" as="geometry" />
        </mxCell>
        <mxCell id="W6WWAo-VraU2lFLDkDVo-30" style="edgeStyle=orthogonalEdgeStyle;rounded=0;orthogonalLoop=1;jettySize=auto;html=1;exitX=0.5;exitY=1;exitDx=0;exitDy=0;exitPerimeter=0;entryX=0.5;entryY=0;entryDx=0;entryDy=0;" edge="1" parent="1" source="W6WWAo-VraU2lFLDkDVo-31" target="W6WWAo-VraU2lFLDkDVo-35">
          <mxGeometry relative="1" as="geometry" />
        </mxCell>
        <mxCell id="W6WWAo-VraU2lFLDkDVo-31" value="var_Num[i]" style="strokeWidth=2;html=1;shape=mxgraph.flowchart.display;whiteSpace=wrap;" vertex="1" parent="1">
          <mxGeometry x="190" y="320" width="100" height="60" as="geometry" />
        </mxCell>
        <mxCell id="W6WWAo-VraU2lFLDkDVo-32" style="edgeStyle=orthogonalEdgeStyle;rounded=0;orthogonalLoop=1;jettySize=auto;html=1;exitX=0.5;exitY=1;exitDx=0;exitDy=0;exitPerimeter=0;entryX=0.5;entryY=0;entryDx=0;entryDy=0;entryPerimeter=0;" edge="1" parent="1" source="W6WWAo-VraU2lFLDkDVo-28" target="W6WWAo-VraU2lFLDkDVo-31">
          <mxGeometry relative="1" as="geometry" />
        </mxCell>
        <mxCell id="W6WWAo-VraU2lFLDkDVo-33" value="V" style="edgeLabel;html=1;align=center;verticalAlign=middle;resizable=0;points=[];" vertex="1" connectable="0" parent="W6WWAo-VraU2lFLDkDVo-32">
          <mxGeometry x="-0.3226" y="2" relative="1" as="geometry">
            <mxPoint x="8" as="offset" />
          </mxGeometry>
        </mxCell>
        <mxCell id="W6WWAo-VraU2lFLDkDVo-34" style="edgeStyle=orthogonalEdgeStyle;rounded=0;orthogonalLoop=1;jettySize=auto;html=1;exitX=0;exitY=0.5;exitDx=0;exitDy=0;entryX=0;entryY=0.5;entryDx=0;entryDy=0;" edge="1" parent="1" source="W6WWAo-VraU2lFLDkDVo-35" target="W6WWAo-VraU2lFLDkDVo-27">
          <mxGeometry relative="1" as="geometry">
            <Array as="points">
              <mxPoint x="150" y="445" />
              <mxPoint x="150" y="155" />
            </Array>
          </mxGeometry>
        </mxCell>
        <mxCell id="W6WWAo-VraU2lFLDkDVo-35" value="contador++" style="rounded=1;whiteSpace=wrap;html=1;absoluteArcSize=1;arcSize=14;strokeWidth=2;" vertex="1" parent="1">
          <mxGeometry x="190" y="420" width="100" height="50" as="geometry" />
        </mxCell>
        <mxCell id="W6WWAo-VraU2lFLDkDVo-36" value="V" style="text;html=1;align=center;verticalAlign=middle;resizable=0;points=[];autosize=1;strokeColor=none;fillColor=none;" vertex="1" parent="1">
          <mxGeometry x="240" y="180" width="30" height="30" as="geometry" />
        </mxCell>
        <mxCell id="W6WWAo-VraU2lFLDkDVo-37" value="F" style="edgeLabel;html=1;align=center;verticalAlign=middle;resizable=0;points=[];" vertex="1" connectable="0" parent="1">
          <mxGeometry x="330" y="172" as="geometry" />
        </mxCell>
      </root>
    </mxGraphModel>
  </diagram>
  <diagram id="PQzZfvLfUJHiQpDq7L9y" name="finalizar">
    <mxGraphModel dx="477" dy="619" grid="1" gridSize="10" guides="1" tooltips="1" connect="1" arrows="1" fold="1" page="1" pageScale="1" pageWidth="827" pageHeight="1169" math="0" shadow="0">
      <root>
        <mxCell id="0" />
        <mxCell id="1" parent="0" />
        <mxCell id="Hhbj1FvJ_4GW9eHZ_tmG-2" value="finalizar" style="ellipse;whiteSpace=wrap;html=1;" vertex="1" parent="1">
          <mxGeometry x="180" y="70" width="120" height="70" as="geometry" />
        </mxCell>
        <mxCell id="Hhbj1FvJ_4GW9eHZ_tmG-3" value="Fim" style="ellipse;whiteSpace=wrap;html=1;" vertex="1" parent="1">
          <mxGeometry x="180" y="260" width="120" height="70" as="geometry" />
        </mxCell>
        <mxCell id="Hhbj1FvJ_4GW9eHZ_tmG-18" style="edgeStyle=orthogonalEdgeStyle;rounded=0;orthogonalLoop=1;jettySize=auto;html=1;exitX=0.5;exitY=1;exitDx=0;exitDy=0;exitPerimeter=0;entryX=0.5;entryY=0;entryDx=0;entryDy=0;" edge="1" parent="1" source="Hhbj1FvJ_4GW9eHZ_tmG-9" target="Hhbj1FvJ_4GW9eHZ_tmG-3">
          <mxGeometry relative="1" as="geometry" />
        </mxCell>
        <mxCell id="Hhbj1FvJ_4GW9eHZ_tmG-9" value="contador" style="strokeWidth=2;html=1;shape=mxgraph.flowchart.display;whiteSpace=wrap;" vertex="1" parent="1">
          <mxGeometry x="190" y="170" width="100" height="60" as="geometry" />
        </mxCell>
        <mxCell id="Hhbj1FvJ_4GW9eHZ_tmG-17" style="edgeStyle=orthogonalEdgeStyle;rounded=0;orthogonalLoop=1;jettySize=auto;html=1;exitX=0.5;exitY=1;exitDx=0;exitDy=0;entryX=0.5;entryY=0;entryDx=0;entryDy=0;entryPerimeter=0;" edge="1" parent="1" source="Hhbj1FvJ_4GW9eHZ_tmG-2" target="Hhbj1FvJ_4GW9eHZ_tmG-9">
          <mxGeometry relative="1" as="geometry" />
        </mxCell>
      </root>
    </mxGraphModel>
  </diagram>
</mxfile>
